<svg width="32" height="32" viewBox="0 0 32 32" fill="none" xmlns="http://www.w3.org/2000/svg">
<path d="M19.9741 9.35449C19.9741 9.35449 20.6408 10.0212 21.3075 11.3545C21.3075 11.3545 23.4251 8.02116 25.3075 7.35449" stroke="#949FA8" stroke-linecap="round" stroke-linejoin="round"/>
<path d="M13.3263 2.6952C9.99501 2.55416 7.42133 2.93792 7.42133 2.93792C5.7962 3.05412 2.68178 3.96522 2.68181 9.28614C2.68184 14.5618 2.64736 21.0658 2.68181 23.6586C2.68181 25.2428 3.66264 28.9378 7.05752 29.1358C11.184 29.3766 18.6168 29.4278 22.0271 29.1358C22.94 29.0844 25.9794 28.3677 26.364 25.0609C26.7626 21.6352 26.6832 19.2544 26.6832 18.6877" stroke="#949FA8" stroke-linecap="round" stroke-linejoin="round"/>
<path d="M29.3334 9.35417C29.3334 13.0361 26.3458 16.0209 22.6604 16.0209C18.9749 16.0209 15.9873 13.0361 15.9873 9.35417C15.9873 5.67227 18.9749 2.6875 22.6604 2.6875C26.3458 2.6875 29.3334 5.67227 29.3334 9.35417Z" stroke="#949FA8" stroke-linecap="round"/>
<path d="M9.30762 17.3545H14.6409" stroke="#949FA8" stroke-linecap="round"/>
<path d="M9.30762 22.6875H19.9742" stroke="#949FA8" stroke-linecap="round"/>
</svg>
