<svg width="32" height="32" viewBox="0 0 32 32" fill="none" xmlns="http://www.w3.org/2000/svg">
<path d="M25.3333 14.0003V13.3337C25.3333 8.30534 25.3333 5.79119 23.7712 4.22909C22.2092 2.66699 19.6949 2.66699 14.6667 2.66699C9.63835 2.66699 7.1242 2.66699 5.56209 4.22909C4 5.79119 4 8.30534 4 13.3337V21.3337C4 23.8187 4 25.0611 4.40597 26.0413C4.94728 27.3481 5.98553 28.3863 7.29236 28.9277C8.27247 29.3337 9.51497 29.3337 12 29.3337" stroke="#949FA8" stroke-linecap="round" stroke-linejoin="round"/>
<path d="M9.3335 9.33301H20.0002M9.3335 14.6663H14.6668" stroke="#949FA8" stroke-linecap="round"/>
<path d="M20.3767 25.3389C20.298 24.154 20.1573 22.8874 19.5756 21.4553C19.0793 20.2338 19.2176 17.3604 22 17.3604C24.7824 17.3604 24.8885 20.2338 24.3923 21.4553C23.8104 22.8874 23.702 24.154 23.6233 25.3389M28 29.333H16V27.6721C16 27.0768 16.3552 26.5536 16.8704 26.3901L19.8768 25.4357C20.0912 25.3676 20.3131 25.333 20.5361 25.333H23.4639C23.6869 25.333 23.9088 25.3676 24.1232 25.4357L27.1296 26.3901C27.6448 26.5536 28 27.0768 28 27.6721V29.333Z" stroke="#949FA8" stroke-linecap="round" stroke-linejoin="round"/>
</svg>
