<svg width="114" height="114" viewBox="0 0 114 114" fill="none" xmlns="http://www.w3.org/2000/svg">
<path fill-rule="evenodd" clip-rule="evenodd" d="M8 0C3.58172 0 0 3.58172 0 8V106C0 110.418 3.58172 114 8 114H106C110.418 114 114 110.418 114 106V8C114 3.58172 110.418 0 106 0H8ZM32.2939 89V98H34.1161V94.2822H37.6214V92.7134H34.1161V90.5688H38.0002V89H32.2939ZM26.727 98H23.6719V89H26.7522C27.6191 89 28.3653 89.1802 28.991 89.5405C29.6166 89.8979 30.0977 90.4121 30.4343 91.083C30.7738 91.7539 30.9435 92.5566 30.9435 93.4912C30.9435 94.4287 30.7738 95.2344 30.4343 95.9082C30.0977 96.582 29.6138 97.0991 28.9825 97.4595C28.3541 97.8198 27.6023 98 26.727 98ZM25.494 96.3696H26.6512C27.1899 96.3696 27.643 96.27 28.0105 96.0708C28.3808 95.8687 28.6585 95.5566 28.8437 95.1348C29.0316 94.71 29.1256 94.1621 29.1256 93.4912C29.1256 92.8262 29.0316 92.2827 28.8437 91.8608C28.6585 91.439 28.3822 91.1284 28.0147 90.9292C27.6472 90.73 27.1941 90.6304 26.6554 90.6304H25.494V96.3696ZM16 89V98H17.8221V95.082H19.3539C20.016 95.082 20.5799 94.9546 21.0456 94.6997C21.5141 94.4448 21.8718 94.0889 22.1186 93.6318C22.3655 93.1748 22.4889 92.6475 22.4889 92.0498C22.4889 91.4521 22.3669 90.9248 22.1228 90.4678C21.8816 90.0078 21.5309 89.6489 21.0708 89.3911C20.6107 89.1304 20.0538 89 19.4002 89H16ZM17.8221 93.5571V90.5557H19.0509C19.4044 90.5557 19.6961 90.6187 19.9262 90.7446C20.1562 90.8677 20.3274 91.042 20.4396 91.2676C20.5546 91.4902 20.6121 91.751 20.6121 92.0498C20.6121 92.3457 20.5546 92.6079 20.4396 92.8364C20.3274 93.062 20.1562 93.2393 19.9262 93.3682C19.699 93.4941 19.41 93.5571 19.0593 93.5571H17.8221ZM49.3976 61.0469H16V59H49.3976V61.0469ZM16 67.1875H49.3976V65.1406H16V67.1875ZM49.3976 73.3286H16V71.2817H49.3976V73.3286ZM16 79.4692H39.0241V77.4224H16V79.4692Z" fill="#2B3740"/>
</svg>
