<svg width="28" height="28" viewBox="0 0 28 28" fill="none" xmlns="http://www.w3.org/2000/svg">
<path d="M8.1665 15.1667H11.5228C11.8164 15.1667 11.9796 15.5062 11.7962 15.7354L8.34142 20.0524C8.03576 20.4342 8.30779 21.0001 8.7971 21.0001H12.2514M15.169 15.1667H16.6279M16.6279 15.1667H18.0867M16.6279 15.1667V20.7779M15.169 21.0001H18.0867M21.0044 21.0001V15.1667H22.7133C23.4714 15.1667 24.2875 15.5037 24.4567 16.2423C24.5142 16.493 24.5143 16.737 24.4567 16.9902C24.2867 17.7375 23.4645 18.0834 22.6979 18.0834H22.1715" stroke="#949FA8" stroke-width="1.5" stroke-linecap="round" stroke-linejoin="round"/>
<path d="M17.5 25.6666H12.5152C8.71041 25.6666 6.80804 25.6666 5.48692 24.7358C5.10839 24.4691 4.77234 24.1528 4.48898 23.7965C3.5 22.5531 3.5 20.7626 3.5 17.1818V14.212C3.5 10.755 3.5 9.02649 4.0471 7.64596C4.92661 5.42658 6.78666 3.67595 9.14475 2.84816C10.6116 2.33325 12.4481 2.33325 16.1212 2.33325C18.2202 2.33325 19.2696 2.33325 20.1077 2.62749C21.4552 3.10051 22.5181 4.10087 23.0207 5.36908C23.3333 6.15796 23.3333 7.14568 23.3333 9.12113V11.6666" stroke="#949FA8" stroke-width="1.5" stroke-linecap="round" stroke-linejoin="round"/>
<path d="M3.5 13.9999C3.5 11.8522 5.24111 10.111 7.38889 10.111C8.16564 10.111 9.08138 10.2471 9.8366 10.0448C10.5076 9.86497 11.0317 9.34086 11.2115 8.66984C11.4139 7.91463 11.2778 6.99889 11.2778 6.22214C11.2778 4.07436 13.0189 2.33325 15.1667 2.33325" stroke="#949FA8" stroke-width="1.5" stroke-linecap="round" stroke-linejoin="round"/>
</svg>
