<svg width="16" height="16" viewBox="0 0 16 16" fill="none" xmlns="http://www.w3.org/2000/svg">
<path d="M1.66667 7.99996C1.66667 5.0144 1.66667 3.52162 2.59416 2.59412C3.52166 1.66663 5.01444 1.66663 8 1.66663C10.9855 1.66663 12.4783 1.66663 13.4059 2.59412C14.3333 3.52162 14.3333 5.0144 14.3333 7.99996C14.3333 10.9855 14.3333 12.4783 13.4059 13.4058C12.4783 14.3333 10.9855 14.3333 8 14.3333C5.01444 14.3333 3.52166 14.3333 2.59416 13.4058C1.66667 12.4783 1.66667 10.9855 1.66667 7.99996Z" stroke="#949FA8"/>
<path d="M6.66667 5.99996C6.66667 5.26358 7.2636 4.66663 8 4.66663C8.7364 4.66663 9.33333 5.26358 9.33333 5.99996C9.33333 6.26539 9.2558 6.51271 9.12207 6.72049C8.7236 7.33976 8 7.93023 8 8.66663V8.99996" stroke="#949FA8" strokeLinecap="round"/>
<path d="M7.99467 11.3334H8.00167" stroke="#949FA8" strokeLinecap="round" strokeLinejoin="round"/>
</svg>
