<svg width="16" height="16" viewBox="0 0 16 16" fill="none" xmlns="http://www.w3.org/2000/svg">
<path d="M7.86753 4.32629L8.85793 3.33591C9.97307 2.22076 11.433 1.75821 12.9781 1.68262C13.5791 1.65322 13.8795 1.63852 14.1205 1.87948C14.3615 2.12043 14.3467 2.42091 14.3173 3.02189C14.2417 4.56696 13.7792 6.02691 12.6641 7.14203L11.6737 8.13243C10.8581 8.94803 10.6262 9.17996 10.7974 10.0646C10.9664 10.7404 11.1299 11.3948 10.6385 11.8862C10.0425 12.4823 9.49873 12.4823 8.90267 11.8862L4.11372 7.09729C3.51766 6.50121 3.51764 5.95749 4.11372 5.36142C4.60511 4.87002 5.25953 5.03359 5.93531 5.20255C6.82 5.37378 7.05193 5.14189 7.86753 4.32629Z" stroke="#949FA8" strokeLinejoin="round"/>
<path d="M11.3306 4.66663H11.3381" stroke="#949FA8" strokeLinecap="round" strokeLinejoin="round"/>
<path d="M1.66667 14.3333L5 11" stroke="#949FA8" strokeLinecap="round"/>
<path d="M5.66667 14.3333L7 13" stroke="#949FA8" strokeLinecap="round"/>
<path d="M1.66667 10.3333L3 9" stroke="#949FA8" strokeLinecap="round"/>
</svg>
