<svg width="18" height="18" viewBox="0 0 18 18" fill="none" xmlns="http://www.w3.org/2000/svg">
<path d="M3.75 15.375H14.25" stroke="black" strokeLinecap="round" strokeLinejoin="round"/>
<path d="M12.6538 13.125H5.34623C4.57513 13.125 4.18958 13.125 3.89717 12.9176C3.60475 12.7101 3.47737 12.3462 3.22259 11.6184L1.53842 6.80751C1.44879 6.54244 1.51877 6.2502 1.71919 6.05262C1.9714 5.80398 2.36659 5.7654 2.66338 5.96045L3.58762 6.56789C4.52054 7.18103 4.98701 7.48759 5.45861 7.37616C5.93022 7.26473 6.21014 6.78181 6.76999 5.81596L8.4309 2.95059C8.5476 2.74925 8.7648 2.625 9 2.625C9.2352 2.625 9.4524 2.74925 9.5691 2.95059L11.23 5.81596C11.7898 6.78181 12.0697 7.26473 12.5413 7.37616C13.013 7.48759 13.4794 7.18103 14.4124 6.56789L15.3366 5.96045C15.6334 5.7654 16.0286 5.80398 16.2808 6.05262C16.4812 6.2502 16.5512 6.54244 16.4616 6.80751L14.7774 11.6184C14.5226 12.3462 14.3953 12.7101 14.1029 12.9176C13.8104 13.125 13.4249 13.125 12.6538 13.125Z" stroke="black" strokeLinecap="round" strokeLinejoin="round"/>
</svg>
